<svg id="Layer_1" data-name="Layer 1" xmlns="http://www.w3.org/2000/svg" viewBox="0 0 239 100"><defs><style>.cls-1{fill:#fff;}.cls-2{fill:#0cc;}.cls-3{fill:#9ff;}</style></defs><title>tripio_logo_white</title><path class="cls-1" d="M43.14,35a2.06,2.06,0,1,1,0,4.12H29.82c0,10.75.06,21.68.06,32.42a2.21,2.21,0,0,1-2.27,2.21,2.11,2.11,0,0,1-2.15-2.21V39.12H12.21a2.06,2.06,0,1,1,0-4.12Z"/><path class="cls-1" d="M62.31,59.72V71.3c0,2.75-4.36,2.75-4.36.06V37.09A2,2,0,0,1,60.16,35H74.31c10.33,0,15.58,5.85,15.58,12.84,0,6-3.28,10.39-10.63,11.64l9.67,10.45c2.27,2.27-1,4.9-3,2.87L73.89,59.72Zm0-3.76H74.37c7.82,0,11.23-3.64,11.11-8.12C85.41,42.94,81.29,39,74.37,39H62.31Z"/><path class="cls-1" d="M105.48,35.83c0-3,4.48-2.93,4.48,0V71.54c0,2.75-4.48,2.87-4.48,0Z"/><path class="cls-1" d="M130.79,61.81v9.61c0,2.75-4.3,2.69-4.3.06V37.09A2.1,2.1,0,0,1,128.7,35h13c10.33,0,15.17,6.87,15.17,13.73,0,7.17-4.9,13.08-15.35,13.08Zm0-3.88h10.69c7.94,0,11.23-4.66,11.11-9.2-.06-4.9-3.94-9.85-10.87-9.85H130.79Z"/><path class="cls-1" d="M171.75,35.83c0-3,4.48-2.93,4.48,0V71.54c0,2.75-4.48,2.87-4.48,0Z"/><path class="cls-1" d="M190.44,53.39a18.7,18.7,0,0,1,15.82-18.87,24.94,24.94,0,0,1,6.33,0,19,19,0,0,1,16.3,18.87c0,12.42-9,20.3-19.11,20.3C199,73.69,190.44,66,190.44,53.39Zm4.48.18c0,9.79,6.45,16,14.87,16,8.06,0,14.69-6,14.69-16,0-7.7-5.08-13.85-12.42-15a18.93,18.93,0,0,0-5.19,0C199.64,39.65,194.92,45.45,194.92,53.57Z"/><circle class="cls-2" cx="107.92" cy="30.56" r="12.31"/><circle class="cls-3" cx="103.62" cy="26.69" r="2.85"/></svg>